<?xml version="1.0" encoding="utf-8"?>
<svg version="1.1" xmlns:xlink="http://www.w3.org/1999/xlink" width="24px" height="20px" xmlns="http://www.w3.org/2000/svg">
  <g transform="matrix(1 0 0 1 -75 -59 )">
    <path d="M 14.828125 12.3567708333333  C 15.609375 11.7057291666667  16 10.9201388888889  16 10  C 16 9.07986111111111  15.609375 8.29427083333333  14.828125 7.64322916666667  C 14.046875 6.9921875  13.1041666666667 6.66666666666667  12 6.66666666666667  C 10.8958333333333 6.66666666666667  9.953125 6.9921875  9.171875 7.64322916666667  C 8.390625 8.29427083333333  8 9.07986111111111  8 10  C 8 10.9201388888889  8.390625 11.7057291666667  9.171875 12.3567708333333  C 9.953125 13.0078125  10.8958333333333 13.3333333333333  12 13.3333333333333  C 13.1041666666667 13.3333333333333  14.046875 13.0078125  14.828125 12.3567708333333  Z M 23.875 8.27473958333333  C 23.9583333333333 8.36588541666667  24 8.46788194444444  24 8.58072916666667  L 24 11.4713541666667  C 24 11.5755208333333  23.9583333333333 11.6753472222222  23.875 11.7708333333333  C 23.7916666666667 11.8663194444444  23.6875 11.9227430555555  23.5625 11.9401041666667  L 20.671875 12.3046875  C 20.4739583333333 12.7734375  20.2708333333333 13.1684027777778  20.0625 13.4895833333333  C 20.4270833333333 13.9236111111111  20.984375 14.5225694444444  21.734375 15.2864583333333  C 21.8385416666667 15.390625  21.890625 15.4991319444444  21.890625 15.6119791666667  C 21.890625 15.7248263888889  21.84375 15.8246527777778  21.75 15.9114583333333  C 21.46875 16.2326388888889  20.953125 16.7013888888889  20.203125 17.3177083333333  C 19.453125 17.9340277777778  18.9635416666667 18.2421875  18.734375 18.2421875  C 18.609375 18.2421875  18.4739583333333 18.203125  18.328125 18.125  L 16.171875 16.71875  C 15.7135416666667 16.9184027777778  15.2395833333333 17.0833333333333  14.75 17.2135416666667  C 14.5833333333333 18.3940972222222  14.4322916666667 19.2013888888889  14.296875 19.6354166666667  C 14.2239583333333 19.8784722222222  14.0364583333333 20  13.734375 20  L 10.265625 20  C 10.1197916666667 20  9.9921875 19.9631076388889  9.8828125 19.8893229166667  C 9.7734375 19.8155381944444  9.71354166666667 19.7222222222222  9.703125 19.609375  L 9.265625 17.2135416666667  C 8.75520833333333 17.0746527777778  8.28645833333333 16.9140625  7.859375 16.7317708333333  L 5.65625 18.125  C 5.55208333333333 18.203125  5.421875 18.2421875  5.265625 18.2421875  C 5.11979166666667 18.2421875  4.98958333333333 18.1944444444444  4.875 18.0989583333333  C 3.5625 17.109375  2.703125 16.3802083333333  2.296875 15.9114583333333  C 2.22395833333333 15.8246527777778  2.1875 15.7248263888889  2.1875 15.6119791666667  C 2.1875 15.5078125  2.22916666666667 15.4079861111111  2.3125 15.3125  C 2.46875 15.1302083333333  2.734375 14.8415798611111  3.109375 14.4466145833333  C 3.484375 14.0516493055555  3.765625 13.7456597222222  3.953125 13.5286458333333  C 3.671875 13.0946180555555  3.45833333333333 12.6649305555555  3.3125 12.2395833333333  L 0.453125 11.8880208333333  C 0.317708333333329 11.8706597222222  0.208333333333329 11.81640625  0.125 11.7252604166667  C 0.0416666666666572 11.6341145833333  0 11.5321180555555  0 11.4192708333333  L 0 8.52864583333333  C 0 8.42447916666667  0.0416666666666572 8.32465277777777  0.125 8.22916666666667  C 0.208333333333329 8.13368055555556  0.307291666666671 8.07725694444444  0.421875 8.05989583333333  L 3.328125 7.6953125  C 3.47395833333334 7.29600694444444  3.67708333333333 6.89670138888889  3.9375 6.49739583333333  C 3.52083333333334 6.00260416666667  2.96354166666667 5.40364583333333  2.265625 4.70052083333333  C 2.16145833333334 4.59635416666667  2.109375 4.4921875  2.109375 4.38802083333333  C 2.109375 4.30121527777778  2.15625 4.20138888888889  2.25 4.08854166666667  C 2.52083333333333 3.77604166666667  3.03385416666667 3.30946180555555  3.7890625 2.68880208333333  C 4.54427083333333 2.06814236111111  5.03645833333333 1.7578125  5.265625 1.7578125  C 5.40104166666667 1.7578125  5.53645833333334 1.80121527777778  5.671875 1.88802083333333  L 7.828125 3.28125  C 8.28645833333333 3.08159722222222  8.76041666666666 2.91666666666667  9.25 2.78645833333333  C 9.41666666666666 1.60590277777778  9.56770833333334 0.798611111111107  9.703125 0.364583333333329  C 9.77604166666667 0.121527777777779  9.96354166666667 0  10.265625 0  L 13.734375 0  C 13.8802083333333 0  14.0078125 0.0368923611111072  14.1171875 0.110677083333329  C 14.2265625 0.18446180555555  14.2864583333333 0.277777777777779  14.296875 0.390625  L 14.734375 2.78645833333333  C 15.2447916666667 2.92534722222222  15.7135416666667 3.0859375  16.140625 3.26822916666667  L 18.359375 1.875  C 18.453125 1.796875  18.578125 1.7578125  18.734375 1.7578125  C 18.8697916666667 1.7578125  19 1.80121527777778  19.125 1.88802083333333  C 20.46875 2.92100694444444  21.328125 3.65885416666667  21.703125 4.1015625  C 21.7760416666667 4.17100694444444  21.8125 4.26649305555555  21.8125 4.38802083333333  C 21.8125 4.4921875  21.7708333333333 4.59201388888889  21.6875 4.6875  C 21.53125 4.86979166666667  21.265625 5.15842013888889  20.890625 5.55338541666667  C 20.515625 5.94835069444444  20.234375 6.25434027777777  20.046875 6.47135416666667  C 20.3177083333333 6.90538194444444  20.53125 7.33072916666666  20.6875 7.74739583333333  L 23.546875 8.11197916666667  C 23.6822916666667 8.12934027777777  23.7916666666667 8.18359375  23.875 8.27473958333333  Z " fill-rule="nonzero" fill="#000000" stroke="none" transform="matrix(1 0 0 1 75 59 )" />
  </g>
</svg>