<?xml version="1.0" encoding="utf-8"?>
<svg version="1.1" xmlns:xlink="http://www.w3.org/1999/xlink" width="47px" height="39px" xmlns="http://www.w3.org/2000/svg">
  <g transform="matrix(1 0 0 1 -652 -577 )">
    <path d="M 8.93489583333326 35.5546875  C 9.24496527777774 35.2578125  9.40000000000009 34.90625  9.40000000000009 34.5  L 9.40000000000009 31.5  C 9.40000000000009 31.09375  9.24496527777774 30.7421875  8.93489583333326 30.4453125  C 8.62482638888878 30.1484375  8.25763888888878 30  7.83333333333326 30  L 4.70000000000005 30  C 4.27569444444453 30  3.90850694444453 30.1484375  3.59843750000005 30.4453125  C 3.28836805555557 30.7421875  3.13333333333344 31.09375  3.13333333333344 31.5  L 3.13333333333344 34.5  C 3.13333333333344 34.90625  3.28836805555557 35.2578125  3.59843750000005 35.5546875  C 3.90850694444453 35.8515625  4.27569444444453 36  4.70000000000005 36  L 7.83333333333326 36  C 8.25763888888878 36  8.62482638888878 35.8515625  8.93489583333326 35.5546875  Z M 8.93489583333326 26.5546875  C 9.24496527777774 26.2578125  9.40000000000009 25.90625  9.40000000000009 25.5  L 9.40000000000009 22.5  C 9.40000000000009 22.09375  9.24496527777774 21.7421875  8.93489583333326 21.4453125  C 8.62482638888878 21.1484375  8.25763888888878 21  7.83333333333326 21  L 4.70000000000005 21  C 4.27569444444453 21  3.90850694444453 21.1484375  3.59843750000005 21.4453125  C 3.28836805555557 21.7421875  3.13333333333344 22.09375  3.13333333333344 22.5  L 3.13333333333344 25.5  C 3.13333333333344 25.90625  3.28836805555557 26.2578125  3.59843750000005 26.5546875  C 3.90850694444453 26.8515625  4.27569444444453 27  4.70000000000005 27  L 7.83333333333326 27  C 8.25763888888878 27  8.62482638888878 26.8515625  8.93489583333326 26.5546875  Z M 8.93489583333326 17.5546875  C 9.24496527777774 17.2578125  9.40000000000009 16.9062499999999  9.40000000000009 16.5  L 9.40000000000009 13.5  C 9.40000000000009 13.09375  9.24496527777774 12.7421875  8.93489583333326 12.4453125  C 8.62482638888878 12.1484375  8.25763888888878 12  7.83333333333326 12  L 4.70000000000005 12  C 4.27569444444453 12  3.90850694444453 12.1484375  3.59843750000005 12.4453125  C 3.28836805555557 12.7421875  3.13333333333344 13.09375  3.13333333333344 13.5  L 3.13333333333344 16.5  C 3.13333333333344 16.9062499999999  3.28836805555557 17.2578125  3.59843750000005 17.5546875  C 3.90850694444453 17.8515625  4.27569444444453 18  4.70000000000005 18  L 7.83333333333326 18  C 8.25763888888878 18  8.62482638888878 17.8515625  8.93489583333326 17.5546875  Z M 34.0015625000001 35.5546875  C 34.3116319444443 35.2578125  34.4666666666667 34.90625  34 34.5  L 34 22.5  C 34.4666666666667 22.09375  34.3116319444443 21.7421875  34.0015625000001 21.4453125  C 33.6914930555556 21.1484375  33.3243055555556 21  32.9000000000001 21  L 14.0999999999999 21  C 13.6756944444444 21  13.3085069444444 21.1484375  12.9984374999999 21.4453125  C 12.6883680555557 21.7421875  12.5333333333333 22.09375  13 22.5  L 13 34.5  C 12.5333333333333 34.90625  12.6883680555557 35.2578125  12.9984374999999 35.5546875  C 13.3085069444444 35.8515625  13.6756944444444 36  14.0999999999999 36  L 32.9000000000001 36  C 33.3243055555556 36  33.6914930555556 35.8515625  34.0015625000001 35.5546875  Z M 8.93489583333326 8.5546875  C 9.24496527777774 8.2578125  9.40000000000009 7.90625  9.40000000000009 7.5  L 9.40000000000009 4.5  C 9.40000000000009 4.09375  9.24496527777774 3.7421875  8.93489583333326 3.4453125  C 8.62482638888878 3.1484375  8.25763888888878 3  7.83333333333326 3  L 4.70000000000005 3  C 4.27569444444453 3  3.90850694444453 3.1484375  3.59843750000005 3.4453125  C 3.28836805555557 3.7421875  3.13333333333344 4.09375  3.13333333333344 4.5  L 3.13333333333344 7.5  C 3.13333333333344 7.90625  3.28836805555557 8.2578125  3.59843750000005 8.5546875  C 3.90850694444453 8.8515625  4.27569444444453 9  4.70000000000005 9  L 7.83333333333326 9  C 8.25763888888878 9  8.62482638888878 8.8515625  8.93489583333326 8.5546875  Z M 43.4015625 35.5546875  C 43.7116319444444 35.2578125  43.8666666666668 34.90625  43.8666666666668 34.5  L 43.8666666666668 31.5  C 43.8666666666668 31.09375  43.7116319444444 30.7421875  43.4015625 30.4453125  C 43.0914930555555 30.1484375  42.7243055555555 30  42.3 30  L 39.1666666666667 30  C 38.7423611111112 30  38.3751736111112 30.1484375  38.0651041666667 30.4453125  C 37.7550347222223 30.7421875  37.5999999999999 31.09375  37.5999999999999 31.5  L 37.5999999999999 34.5  C 37.5999999999999 34.90625  37.7550347222223 35.2578125  38.0651041666667 35.5546875  C 38.3751736111112 35.8515625  38.7423611111112 36  39.1666666666667 36  L 42.3 36  C 42.7243055555555 36  43.0914930555555 35.8515625  43.4015625 35.5546875  Z M 34.0015625000001 17.5546875  C 34.3116319444443 17.2578125  34.4666666666667 16.9062499999999  34 16.5  L 34 4.5  C 34.4666666666667 4.09375  34.3116319444443 3.7421875  34.0015625000001 3.4453125  C 33.6914930555556 3.1484375  33.3243055555556 3  32.9000000000001 3  L 14.0999999999999 3  C 13.6756944444444 3  13.3085069444444 3.1484375  12.9984374999999 3.4453125  C 12.6883680555557 3.7421875  12.5333333333333 4.09375  13 4.5  L 13 16.5  C 12.5333333333333 16.9062499999999  12.6883680555557 17.2578125  12.9984374999999 17.5546875  C 13.3085069444444 17.8515625  13.6756944444444 18  14.0999999999999 18  L 32.9000000000001 18  C 33.3243055555556 18  33.6914930555556 17.8515625  34.0015625000001 17.5546875  Z M 43.4015625 26.5546875  C 43.7116319444444 26.2578125  43.8666666666668 25.90625  43.8666666666668 25.5  L 43.8666666666668 22.5  C 43.8666666666668 22.09375  43.7116319444444 21.7421875  43.4015625 21.4453125  C 43.0914930555555 21.1484375  42.7243055555555 21  42.3 21  L 39.1666666666667 21  C 38.7423611111112 21  38.3751736111112 21.1484375  38.0651041666667 21.4453125  C 37.7550347222223 21.7421875  37.5999999999999 22.09375  37.5999999999999 22.5  L 37.5999999999999 25.5  C 37.5999999999999 25.90625  37.7550347222223 26.2578125  38.0651041666667 26.5546875  C 38.3751736111112 26.8515625  38.7423611111112 27  39.1666666666667 27  L 42.3 27  C 42.7243055555555 27  43.0914930555555 26.8515625  43.4015625 26.5546875  Z M 43.4015625 17.5546875  C 43.7116319444444 17.2578125  43.8666666666668 16.9062499999999  43.8666666666668 16.5  L 43.8666666666668 13.5  C 43.8666666666668 13.09375  43.7116319444444 12.7421875  43.4015625 12.4453125  C 43.0914930555555 12.1484375  42.7243055555555 12  42.3 12  L 39.1666666666667 12  C 38.7423611111112 12  38.3751736111112 12.1484375  38.0651041666667 12.4453125  C 37.7550347222223 12.7421875  37.5999999999999 13.09375  37.5999999999999 13.5  L 37.5999999999999 16.5  C 37.5999999999999 16.9062499999999  37.7550347222223 17.2578125  38.0651041666667 17.5546875  C 38.3751736111112 17.8515625  38.7423611111112 18  39.1666666666667 18  L 42.3 18  C 42.7243055555555 18  43.0914930555555 17.8515625  43.4015625 17.5546875  Z M 43.4015625 8.5546875  C 43.7116319444444 8.2578125  43.8666666666668 7.90625  43.8666666666668 7.5  L 43.8666666666668 4.5  C 43.8666666666668 4.09375  43.7116319444444 3.7421875  43.4015625 3.4453125  C 43.0914930555555 3.1484375  42.7243055555555 3  42.3 3  L 39.1666666666667 3  C 38.7423611111112 3  38.3751736111112 3.1484375  38.0651041666667 3.4453125  C 37.7550347222223 3.7421875  37.5999999999999 4.09375  37.5999999999999 4.5  L 37.5999999999999 7.5  C 37.5999999999999 7.90625  37.7550347222223 8.2578125  38.0651041666667 8.5546875  C 38.3751736111112 8.8515625  38.7423611111112 9  39.1666666666667 9  L 42.3 9  C 42.7243055555555 9  43.0914930555555 8.8515625  43.4015625 8.5546875  Z M 45.8494791666667 1.1015625  C 46.6164930555556 1.8359375  47 2.71875  47 3.75  L 47 35.25  C 47 36.28125  46.6164930555556 37.1640625  45.8494791666667 37.8984375  C 45.0824652777778 38.6328125  44.1604166666666 39  43.0833333333333 39  L 3.91666666666674 39  C 2.83958333333339 39  1.91753472222217 38.6328125  1.1505208333333 37.8984375  C 0.383506944444434 37.1640625  0 36.28125  0 35.25  L 0 3.75  C 0 2.71875  0.383506944444434 1.8359375  1.1505208333333 1.1015625  C 1.91753472222217 0.3671875  2.83958333333339 0  3.91666666666674 0  L 43.0833333333333 0  C 44.1604166666666 0  45.0824652777778 0.3671875  45.8494791666667 1.1015625  Z " fill-rule="nonzero" fill="#000000" stroke="none" transform="matrix(1 0 0 1 652 577 )" />
  </g>
</svg>