<?xml version="1.0" encoding="utf-8"?>
<svg version="1.1" xmlns:xlink="http://www.w3.org/1999/xlink" width="47px" height="38px" xmlns="http://www.w3.org/2000/svg">
  <g transform="matrix(1 0 0 1 -779 -578 )">
    <path d="M 45.1358173076923 8.69034090909088  C 46.3786057692307 9.87784090909088  47 11.2992424242424  47 12.9545454545455  L 47 31.9545454545455  C 47 33.6098484848485  46.3786057692307 35.03125  45.1358173076923 36.21875  C 43.8930288461539 37.40625  42.4054487179487 38  40.6730769230769 38  L 6.3269230769231 38  C 4.59455128205138 38  3.10697115384608 37.40625  1.86418269230774 36.21875  C 0.621394230769283 35.03125  0 33.6098484848485  0 31.9545454545455  L 0 6.0454545454545  C 0 4.3901515151515  0.621394230769283 2.96875  1.86418269230774 1.78125  C 3.10697115384608 0.59375  4.59455128205138 0  6.3269230769231 0  L 15.3653846153846 0  C 17.0977564102565 0  18.5853365384615 0.59375  19.828125 1.78125  C 21.0709134615385 2.96875  21.6923076923077 4.3901515151515  21.6923076923077 6.0454545454545  L 21.6923076923077 7  L 40.6730769230769 7  C 42.4054487179487 6.90909090909088  43.8930288461539 7.50284090909088  45.1358173076923 8.69034090909088  Z " fill-rule="nonzero" fill="#000000" stroke="none" transform="matrix(1 0 0 1 779 578 )" />
  </g>
</svg>