<?xml version="1.0" encoding="utf-8"?>
<svg version="1.1" xmlns:xlink="http://www.w3.org/1999/xlink" width="47px" height="38px" xmlns="http://www.w3.org/2000/svg">
  <g transform="matrix(1 0 0 1 -902 -578 )">
    <path d="M 31.1038411458333 26.82265625  C 31.5832248263889 27.2877604166667  31.8229166666667 27.8468750000001  31.8229166666667 28.5  C 31.8229166666667 29.1531249999999  31.5832248263889 29.7122395833333  31.1038411458333 30.17734375  C 30.6244574652778 30.6424479166666  30.0481770833333 30.875  29.375 30.875  C 28.7018229166667 30.875  28.1255425347222 30.6424479166666  27.6461588541667 30.17734375  C 27.1667751736111 29.7122395833333  26.9270833333333 29.1531249999999  26.9270833333333 28.5  C 26.9270833333333 27.8468750000001  27.1667751736111 27.2877604166667  27.6461588541667 26.82265625  C 28.1255425347222 26.3575520833334  28.7018229166667 26.125  29.375 26.125  C 30.0481770833333 26.125  30.6244574652778 26.3575520833334  31.1038411458333 26.82265625  Z M 38.9371744791667 26.82265625  C 39.4165581597222 27.2877604166667  39.65625 27.8468750000001  39.65625 28.5  C 39.65625 29.1531249999999  39.4165581597222 29.7122395833333  38.9371744791667 30.17734375  C 38.4577907986111 30.6424479166666  37.8815104166667 30.875  37.2083333333333 30.875  C 36.53515625 30.875  35.9588758680557 30.6424479166666  35.4794921875 30.17734375  C 35.0001085069443 29.7122395833333  34.7604166666667 29.1531249999999  34.7604166666667 28.5  C 34.7604166666667 27.8468750000001  35.0001085069443 27.2877604166667  35.4794921875 26.82265625  C 35.9588758680557 26.3575520833334  36.53515625 26.125  37.2083333333333 26.125  C 37.8815104166667 26.125  38.4577907986111 26.3575520833334  38.9371744791667 26.82265625  Z M 42.7926432291667 33.91796875  C 42.9864366319443 33.7299479166667  43.0833333333333 33.5072916666667  43.0833333333333 33.25  L 43.0833333333333 23.75  C 43.0833333333333 23.4927083333333  42.9864366319443 23.2700520833333  42.7926432291667 23.08203125  C 42.5988498263889 22.8940104166667  42.3693576388889 22.8000000000001  42.1041666666667 22.8000000000001  L 4.89583333333326 22.8000000000001  C 4.63064236111109 22.8000000000001  4.40115017361109 22.8940104166667  4.20735677083326 23.08203125  C 4.01356336805566 23.2700520833333  3.91666666666674 23.4927083333333  3.91666666666674 23.75  L 3.91666666666674 33.25  C 3.91666666666674 33.5072916666667  4.01356336805566 33.7299479166667  4.20735677083326 33.91796875  C 4.40115017361109 34.1059895833333  4.63064236111109 34.1999999999999  4.89583333333326 34  L 42.1041666666667 34  C 42.3693576388889 34.1999999999999  42.5988498263889 34.1059895833333  42.7926432291667 33.91796875  Z M 10.2506510416667 4.69062500000007  L 5.44661458333326 19  L 41.5533854166667 19  L 36.7493489583333 4.69062500000007  C 36.6677517361111 4.43333333333339  36.5045572916667 4.22057291666658  36.259765625 4.05234374999998  C 36.0149739583333 3.88411458333326  35.7497829861111 3.80000000000007  35.4641927083333 4  L 11.5358072916667 4  C 11.2502170138889 3.80000000000007  10.9850260416667 3.88411458333326  10.740234375 4.05234374999998  C 10.4954427083333 4.22057291666658  10.3322482638889 4.43333333333339  10.2506510416667 4.69062500000007  Z M 46.5104166666667 21.5234375  C 46.8368055555557 22.5130208333333  47 23.2552083333333  47 23.75  L 47 33.25  C 47 34.55625  46.5206163194443 35.6744791666667  45.5618489583333 36.6046875000001  C 44.6030815972222 37.5348958333333  43.4505208333333 38  42.1041666666667 38  L 4.89583333333326 38  C 3.54947916666674 38  2.39691840277783 37.5348958333333  1.43815104166674 36.6046875000001  C 0.479383680555657 35.6744791666667  0 34.55625  0 33.25  L 0 23.75  C 0 23.2552083333333  0.163194444444343 22.5130208333333  0.489583333333258 21.5234375  L 6.517578125 3.53281249999998  C 6.86436631944434 2.48385416666667  7.50694444444434 1.6328125  8.4453125 0.979687500000068  C 9.38368055555566 0.326562500000023  10.4138454861111 0  11.5358072916667 0  L 35.4641927083333 0  C 36.5861545138889 0  37.6163194444443 0.326562500000023  38.5546875 0.979687500000068  C 39.4930555555557 1.6328125  40.1356336805557 2.48385416666667  40.482421875 3.53281249999998  L 46.5104166666667 21.5234375  Z " fill-rule="nonzero" fill="#000000" stroke="none" transform="matrix(1 0 0 1 902 578 )" />
  </g>
</svg>