<?xml version="1.0" encoding="utf-8"?>
<svg version="1.1" xmlns:xlink="http://www.w3.org/1999/xlink" width="47px" height="36px" xmlns="http://www.w3.org/2000/svg">
  <g transform="matrix(1 0 0 1 -1036 -579 )">
    <path d="M 40.2441140024782 20.5674201091192  C 40.2635274679885 20.6048324240063  40.2732342007434 20.6609508963368  40 20.7357755261106  L 40 34.2042088854248  C 40.2732342007434 34.6905689789556  40.0888062783974 35.1114575214341  39.7199504337052 35.4668745128604  C 39.3510945890127 35.8222915042868  38.9142916150352 36  38.409541511772 36  L 27 36  L 27 25.2252533125487  L 20 25.2252533125487  L 20 36  L 8.59045848822802 36  C 8.08570838496485 36  7.64890541098725 35.8222915042868  7.28004956629479 35.4668745128604  C 6.91119372160256 35.1114575214341  6.72676579925655 34.6905689789556  7 34.2042088854248  L 7 20.7357755261106  C 6.72676579925655 20.7170693686671  6.73161916563413 20.6890101325019  6.74132589838905 20.651597817615  C 6.7510326311442 20.6141855027279  6.75588599752177 20.5861262665628  6.75588599752177 20.5674201091192  L 23.5 7.26734216679665  L 40.2441140024782 20.5674201091192  Z M 46.970879801735 18.1402961808262  C 46.9902932672451 18.3928293063134  46.9223461379595 18.6126266562743  46.7670384138785 18.7996882307093  L 44.9615861214374 20.876071706937  C 44.8062783973564 21.0444271239282  44.6024370095001 21.1473109898675  44.3500619578688 21.1847233047546  L 44.2627013630731 21.1847233047546  C 44.0103263114415 21.1847233047546  43.8064849235855 21.1192517537022  43.6511771995042 20.9883086515979  L 23.5 4.79812938425562  L 3.34882280049555 20.9883086515979  C 3.11586121437426 21.1379579111458  2.88289962825274 21.203429462198  2.64993804213145 21.1847233047546  C 2.39756299049964 21.1473109898675  2.19372160264356 21.0444271239282  2.03841387856255 20.876071706937  L 0.232961586121519 18.7996882307093  C 0.0776538620405063 18.6126266562743  0.00970673275514855 18.3928293063134  0.0291201982652183 18.1402961808262  C 0.048533663775288 17.8877630553391  0.155307724081013 17.6866718628215  0.349442379182165 17.5370226032735  L 21.2868649318464 0.729540140296081  C 21.90809582817 0.24318004676536  22.6458075175549 0  23.5 0  C 24.3541924824451 0  25.09190417183 0.24318004676536  25.7131350681536 0.729540140296081  L 32.8184634448573 6.4536243180047  L 32.8184634448573 0.982073265783356  C 32.8184634448573 0.720187061574507  32.905824039653 0.505066250974323  33.0805452292441 0.33671083398292  C 33.2552664188352 0.168355416991403  33.4785212722015 0.0841777084956448  33.7503097893432 0.0841777084956448  L 39.3413878562576 0.0841777084956448  C 39.6131763733995 0.0841777084956448  39.8364312267659 0.168355416991403  40.0111524163567 0.33671083398292  C 40.1858736059478 0.505066250974323  40.2732342007434 0.720187061574507  40 0.982073265783356  L 40 12.4302416212003  L 46.6505576208178 17.5370226032735  C 46.844692275919 17.6866718628215  46.9514663362247 17.8877630553391  46.970879801735 18.1402961808262  Z " fill-rule="nonzero" fill="#000000" stroke="none" transform="matrix(1 0 0 1 1036 579 )" />
  </g>
</svg>