<?xml version="1.0" encoding="utf-8"?>
<svg version="1.1" xmlns:xlink="http://www.w3.org/1999/xlink" width="22px" height="23px" xmlns="http://www.w3.org/2000/svg">
  <g transform="matrix(1 0 0 1 -213 -28 )">
    <path d="M 18.8376703841388 13.1402961808262  C 18.8467575382074 13.1641984931151  18.8513011152416 13.2000519615485  18.8513011152416 13.2478565861263  L 18.8513011152416 21.8526890101325  C 18.8513011152416 22.1634190698883  18.7649731515903 22.4323200831385  18.5923172242875 22.6593920498831  C 18.4196612969847 22.8864640166277  18.215200330442 23  17.9789343246592 23  L 12.7447335811648 23  L 12.7447335811648 16.116134060795  L 9.25526641883522 16.116134060795  L 9.25526641883522 23  L 4.02106567534076 23  C 3.78479966955806 23  3.58033870301531 22.8864640166277  3.40768277571254 22.6593920498831  C 3.23502684840972 22.4323200831385  3.14869888475837 22.1634190698883  3.14869888475837 21.8526890101325  L 3.14869888475837 13.2478565861263  C 3.14869888475837 13.2359054299818  3.15097067327548 13.2179786957651  3.15551425030981 13.1940763834762  C 3.16005782734408 13.1701740711873  3.16232961586124 13.1522473369706  3.16232961586124 13.1402961808262  L 11 4.64302416212003  L 18.8376703841388 13.1402961808262  Z M 21.9863692688971 11.5896336710834  C 21.9954564229658 11.7509742790335  21.9636513837258 11.8914003637308  21.8909541511772 12.0109119251754  L 21.0458488228005 13.3374902572097  C 20.9731515902519 13.4450506625097  20.877736472532 13.5107820213042  20.7596034696406 13.5346843335931  L 20.7187112763321 13.5346843335931  C 20.6005782734407 13.5346843335931  20.5051631557208 13.4928552870876  20.4324659231722 13.4091971940764  L 11 3.06547155105222  L 1.56753407682777 13.4091971940764  C 1.45848822800494 13.504806443232  1.34944237918219 13.5466354897376  1.24039653035936 13.5346843335931  C 1.12226352746799 13.5107820213042  1.02684840974806 13.4450506625097  0.95415117719952 13.3374902572097  L 0.109045848822802 12.0109119251754  C 0.036348616274239 11.8914003637308  0.0045435770342408 11.7509742790335  0.0136307311028645 11.5896336710834  C 0.0227178851714029 11.4282930631333  0.0726972325485633 11.2998181345804  0.163568773234232 11.2042088854248  L 9.96406443618341 0.466095089633669  C 10.2548533663775 0.155365029877885  10.6001652209831 0  11 0  C 11.3998347790169 0  11.7451466336225 0.155365029877885  12.0359355638166 0.466095089633669  L 15.361833952912 4.12314886983632  L 15.361833952912 0.627435697583788  C 15.361833952912 0.460119511561441  15.4027261462206 0.322681215900232  15.4845105328376 0.215120810600158  C 15.5662949194547 0.107560405300077  15.6707971912433 0.0537802026500422  15.7980173482032 0.0537802026500422  L 18.4151177199504 0.0537802026500422  C 18.5423378769104 0.0537802026500422  18.6468401486989 0.107560405300077  18.728624535316 0.215120810600158  C 18.8104089219331 0.322681215900232  18.8513011152416 0.460119511561441  18.8513011152416 0.627435697583788  L 18.8513011152416 7.94154325798909  L 21.8364312267658 11.2042088854248  C 21.9273027674514 11.2998181345804  21.9772821148286 11.4282930631333  21.9863692688971 11.5896336710834  Z " fill-rule="nonzero" fill="#ffffff" stroke="none" transform="matrix(1 0 0 1 213 28 )" />
  </g>
</svg>