<?xml version="1.0" encoding="utf-8"?>
<svg version="1.1" xmlns:xlink="http://www.w3.org/1999/xlink" width="19px" height="18px" xmlns="http://www.w3.org/2000/svg">
  <g transform="matrix(1 0 0 1 -259 -32 )">
    <path d="M 18.7649739583333 14.6671875  C 18.9216579861111 14.8453125  19 15.05625  19 15.3  L 19 17.1  C 19 17.34375  18.9216579861111 17.5546875  18.7649739583333 17.7328125  C 18.6082899305556 17.9109375  18.4227430555556 18  18.2083333333333 18  L 0.791666666666686 18  C 0.5772569444444 18  0.3917100694444 17.9109375  0.235026041666686 17.7328125  C 0.0783420138889142 17.5546875  0 17.34375  0 17.1  L 0 15.3  C 0 15.05625  0.0783420138889142 14.8453125  0.235026041666686 14.6671875  C 0.3917100694444 14.4890625  0.5772569444444 14.4  0.791666666666686 14.4  L 18.2083333333333 14.4  C 18.4227430555556 14.4  18.6082899305556 14.4890625  18.7649739583333 14.6671875  Z M 18.7649739583333 7.4671875  C 18.9216579861111 7.6453125  19 7.85625  19 8.1  L 19 9.9  C 19 10.14375  18.9216579861111 10.3546875  18.7649739583333 10.5328125  C 18.6082899305556 10.7109375  18.4227430555556 10.8  18.2083333333333 10.8  L 0.791666666666686 10.8  C 0.5772569444444 10.8  0.3917100694444 10.7109375  0.235026041666686 10.5328125  C 0.0783420138889142 10.3546875  0 10.14375  0 9.9  L 0 8.1  C 0 7.85625  0.0783420138889142 7.6453125  0.235026041666686 7.4671875  C 0.3917100694444 7.2890625  0.5772569444444 7.2  0.791666666666686 7.2  L 18.2083333333333 7.2  C 18.4227430555556 7.2  18.6082899305556 7.2890625  18.7649739583333 7.4671875  Z M 18.7649739583333 0.267187499999999  C 18.9216579861111 0.445312499999993  19 0.65625  19 0.899999999999999  L 19 2.7  C 19 2.94374999999999  18.9216579861111 3.15468749999999  18.7649739583333 3.3328125  C 18.6082899305556 3.5109375  18.4227430555556 3.6  18.2083333333333 3.6  L 0.791666666666686 3.6  C 0.5772569444444 3.6  0.3917100694444 3.5109375  0.235026041666686 3.3328125  C 0.0783420138889142 3.15468749999999  0 2.94374999999999  0 2.7  L 0 0.899999999999999  C 0 0.65625  0.0783420138889142 0.445312499999993  0.235026041666686 0.267187499999999  C 0.3917100694444 0.0890624999999972  0.5772569444444 0  0.791666666666686 0  L 18.2083333333333 0  C 18.4227430555556 0  18.6082899305556 0.0890624999999972  18.7649739583333 0.267187499999999  Z " fill-rule="nonzero" fill="#ffffff" stroke="none" transform="matrix(1 0 0 1 259 32 )" />
  </g>
</svg>