<?xml version="1.0" encoding="utf-8"?>
<svg version="1.1" xmlns:xlink="http://www.w3.org/1999/xlink" width="12px" height="9px" xmlns="http://www.w3.org/2000/svg">
  <g transform="matrix(1 0 0 1 -1086 -35 )">
    <path d="M 12 1.99565217391304  C 12 2.14927536231884  11.9528535980151 2.28115942028985  11.8585607940447 2.39130434782609  L 6.33498759305212 8.83478260869565  C 6.240694789082 8.94492753623189  6.12903225806463 9  6 9  C 5.87096774193537 9  5.759305210918 8.94492753623189  5.66501240694788 8.83478260869565  L 0.141439205955294 2.39130434782609  C 0.0471464019849464 2.28115942028985  0 2.14927536231884  0 1.99565217391304  C 0 1.84202898550724  0.0471464019849464 1.71014492753623  0.141439205955294 1.6  L 1.37717121588071 0.165217391304346  C 1.47146401985106 0.0550724637681128  1.58312655086843 0  1.71215880893283 0  C 1.84119106699745 0  1.95285359801483 0.0550724637681128  2.04714640198495 0.165217391304346  L 6 4.78260869565217  L 9.95285359801505 0.165217391304346  C 10.0471464019852 0.0550724637681128  10.1588089330025 0  10.2878411910672 0  C 10.4168734491316 0  10.5285359801489 0.0550724637681128  10.6228287841193 0.165217391304346  L 11.8585607940447 1.6  C 11.9528535980151 1.71014492753623  12 1.84202898550724  12 1.99565217391304  Z " fill-rule="nonzero" fill="#ffffff" stroke="none" transform="matrix(1 0 0 1 1086 35 )" />
  </g>
</svg>