<?xml version="1.0" encoding="utf-8"?>
<svg version="1.1" xmlns:xlink="http://www.w3.org/1999/xlink" width="43px" height="35px" xmlns="http://www.w3.org/2000/svg">
  <g transform="matrix(1 0 0 1 -356 -67 )">
    <path d="M 26.5670572916667 21.6243489583333  C 27.966796875 20.4850260416667  28.6666666666667 19.1102430555556  28.6666666666667 17.5  C 28.6666666666667 15.8897569444444  27.966796875 14.5149739583333  26.5670572916667 13.3756510416667  C 25.1673177083333 12.236328125  23.4782986111111 11.6666666666667  21.5 11.6666666666667  C 19.5217013888889 11.6666666666667  17.8326822916667 12.236328125  16.4329427083333 13.3756510416667  C 15.033203125 14.5149739583333  14.3333333333333 15.8897569444444  14.3333333333333 17.5  C 14.3333333333333 19.1102430555556  15.033203125 20.4850260416667  16.4329427083333 21.6243489583333  C 17.8326822916667 22.763671875  19.5217013888889 23.3333333333333  21.5 23.3333333333333  C 23.4782986111111 23.3333333333333  25.1673177083333 22.763671875  26.5670572916667 21.6243489583333  Z M 42.7760416666667 14.4807942708333  C 42.9253472222222 14.6402994791667  43 14.8187934027778  43 15.0162760416667  L 43 20.0748697916667  C 43 20.2571614583333  42.9253472222222 20.4318576388889  42.7760416666667 20.5989583333333  C 42.6267361111111 20.7660590277778  42.4401041666667 20.8648003472222  42.2161458333333 20.8951822916667  L 37.037109375 21.533203125  C 36.6825086805555 22.353515625  36.3185763888889 23.0447048611111  35.9453125 23.6067708333333  C 36.5985243055555 24.3663194444444  37.5970052083333 25.4144965277778  38.9407552083333 26.7513020833333  C 39.1273871527778 26.93359375  39.220703125 27.1234809027778  39.220703125 27.3209635416667  C 39.220703125 27.5184461805556  39.13671875 27.6931423611111  38.96875 27.8450520833333  C 38.46484375 28.4071180555556  37.541015625 29.2274305555556  36.197265625 30.3059895833333  C 34.853515625 31.3845486111111  33.9763454861111 31.923828125  33.5657552083333 31.923828125  C 33.341796875 31.923828125  33.0991753472222 31.85546875  32.837890625 31.71875  L 28.974609375 29.2578125  C 28.1534288194445 29.6072048611111  27.3042534722222 29.8958333333333  26.4270833333333 30.1236979166667  C 26.1284722222222 32.1896701388889  25.8578559027778 33.6024305555556  25.615234375 34.3619791666667  C 25.4845920138889 34.7873263888889  25.1486545138889 35  24.607421875 35  L 18.392578125 35  C 18.1312934027778 35  17.9026692708333 34.9354383680556  17.7067057291667 34.8063151041667  C 17.5107421875 34.6771918402778  17.4034288194445 34.5138888888889  17.384765625 34.31640625  L 16.6009114583333 30.1236979166667  C 15.6864149305555 29.8806423611111  14.8465711805555 29.599609375  14.0813802083333 29.2805989583333  L 10.1341145833333 31.71875  C 9.94748263888886 31.85546875  9.71419270833331 31.923828125  9.43424479166669 31.923828125  C 9.17296006944446 31.923828125  8.93967013888886 31.8402777777778  8.734375 31.6731770833333  C 6.3828125 29.94140625  4.84309895833331 28.6653645833333  4.115234375 27.8450520833333  C 3.98459201388886 27.6931423611111  3.91927083333331 27.5184461805556  3.91927083333331 27.3209635416667  C 3.91927083333331 27.138671875  3.99392361111114 26.9639756944444  4.14322916666669 26.796875  C 4.42317708333331 26.4778645833333  4.89908854166669 25.9727647569444  5.57096354166669 25.2815755208333  C 6.24283854166669 24.5903862847222  6.74674479166669 24.0549045138889  7.08268229166669 23.6751302083333  C 6.57877604166669 22.9155815972222  6.19618055555554 22.1636284722222  5.93489583333331 21.4192708333333  L 0.811848958333314 20.8040364583333  C 0.569227430555543 20.7736545138889  0.373263888888857 20.6787109375  0.223958333333314 20.5192057291667  C 0.0746527777777715 20.3597005208333  0 20.1812065972222  0 19.9837239583333  L 0 14.9251302083333  C 0 14.7428385416667  0.0746527777777715 14.5681423611111  0.223958333333314 14.4010416666667  C 0.373263888888857 14.2339409722222  0.550564236111143 14.1351996527778  0.755859375 14.1048177083333  L 5.962890625 13.466796875  C 6.22417534722223 12.7680121527778  6.58810763888886 12.0692274305556  7.0546875 11.3704427083333  C 6.30815972222223 10.5045572916667  5.30967881944446 9.45638020833333  4.05924479166669 8.22591145833333  C 3.87261284722223 8.04361979166667  3.779296875 7.861328125  3.779296875 7.67903645833333  C 3.779296875 7.5271267361111  3.86328125 7.35243055555556  4.03125 7.15494791666667  C 4.51649305555554 6.60807291666667  5.43565538194446 5.79155815972221  6.78873697916669 4.70540364583333  C 8.14181857638886 3.61924913194444  9.02365451388886 3.076171875  9.43424479166669 3.076171875  C 9.67686631944446 3.076171875  9.91948784722223 3.1521267361111  10.162109375 3.30403645833333  L 14.025390625 5.7421875  C 14.8465711805555 5.39279513888889  15.6957465277778 5.10416666666667  16.5729166666667 4.87630208333333  C 16.8715277777778 2.8103298611111  17.1421440972222 1.39756944444444  17.384765625 0.638020833333329  C 17.5154079861111 0.2126736111111  17.8513454861111 0  18.392578125 0  L 24.607421875 0  C 24.8687065972222 0  25.0973307291667 0.0645616319444429  25.2932942708333 0.193684895833329  C 25.4892578125 0.322808159722214  25.5965711805555 0.4861111111111  25.615234375 0.68359375  L 26.3990885416667 4.87630208333333  C 27.3135850694445 5.11935763888889  28.1534288194445 5.400390625  28.9186197916667 5.71940104166667  L 32.8938802083333 3.28125  C 33.0618489583333 3.14453125  33.2858072916667 3.076171875  33.5657552083333 3.076171875  C 33.8083767361111 3.076171875  34.0416666666667 3.1521267361111  34.265625 3.30403645833333  C 36.6731770833333 5.11176215277779  38.212890625 6.40299479166667  38.884765625 7.177734375  C 39.0154079861111 7.29926215277779  39.0807291666667 7.46636284722221  39.0807291666667 7.67903645833333  C 39.0807291666667 7.861328125  39.0060763888889 8.03602430555556  38.8567708333333 8.203125  C 38.5768229166667 8.52213541666667  38.1009114583333 9.02723524305556  37.4290364583333 9.71842447916667  C 36.7571614583333 10.4096137152778  36.2532552083333 10.9450954861111  35.9173177083333 11.3248697916667  C 36.4025607638889 12.0844184027778  36.78515625 12.8287760416667  37.0651041666667 13.5579427083333  L 42.1881510416667 14.1959635416667  C 42.4307725694445 14.2263454861111  42.6267361111111 14.3212890625  42.7760416666667 14.4807942708333  Z " fill-rule="nonzero" fill="#3399cc" stroke="none" transform="matrix(1 0 0 1 356 67 )" />
  </g>
</svg>