<?xml version="1.0" encoding="utf-8"?>
<svg version="1.1" xmlns:xlink="http://www.w3.org/1999/xlink" width="43px" height="29px" xmlns="http://www.w3.org/2000/svg">
  <g transform="matrix(1 0 0 1 -443 -67 )">
    <path d="M 18.151123046875 22.2314453125  C 18.592041015625 21.7468532986111  18.8125 21.1584201388889  18.8125 20.4661458333333  C 18.8125 19.7864583333333  18.760009765625 19.1539713541667  18.655029296875 18.5686848958333  C 18.550048828125 17.9833984375  18.3785807291667 17.4169921875  18.140625 16.8694661458333  C 17.9026692708333 16.3219401041667  17.5457356770833 15.8908420138889  17.06982421875 15.576171875  C 16.5939127604167 15.2615017361111  16.0270182291667 15.1041666666667  15.369140625 15.1041666666667  C 14.4733072916667 15.9097222222222  13.3815104166667 16.3125  12.09375 16.3125  C 10.8059895833333 16.3125  9.71419270833331 15.9097222222222  8.818359375 15.1041666666667  C 8.16048177083331 15.1041666666667  7.59358723958331 15.2615017361111  7.11767578125 15.576171875  C 6.64176432291669 15.8908420138889  6.28483072916669 16.3219401041667  6.046875 16.8694661458333  C 5.80891927083331 17.4169921875  5.637451171875 17.9833984375  5.532470703125 18.5686848958333  C 5.427490234375 19.1539713541667  5.375 19.7864583333333  5.375 20.4661458333333  C 5.375 21.1584201388889  5.595458984375 21.7468532986111  6.036376953125 22.2314453125  C 6.477294921875 22.7160373263889  7.00569661458331 22.9583333333333  7.62158203125 22.9583333333333  L 16.56591796875 22.9583333333333  C 17.1818033854167 22.9583333333333  17.710205078125 22.7160373263889  18.151123046875 22.2314453125  Z M 14.94921875 14.6510416666667  C 15.7330729166667 13.9461805555555  16.125 13.0902777777778  16.125 12.0833333333333  C 16.125 11.0763888888889  15.7330729166667 10.2204861111111  14.94921875 9.515625  C 14.1653645833333 8.81076388888889  13.2135416666667 8.45833333333333  12.09375 8.45833333333333  C 10.9739583333333 8.45833333333333  10.0221354166667 8.81076388888889  9.23828125 9.515625  C 8.45442708333331 10.2204861111111  8.0625 11.0763888888889  8.0625 12.0833333333333  C 8.0625 13.0902777777778  8.45442708333331 13.9461805555555  9.23828125 14.6510416666667  C 10.0221354166667 15.3559027777778  10.9739583333333 15.7083333333333  12.09375 15.7083333333333  C 13.2135416666667 15.7083333333333  14.1653645833333 15.3559027777778  14.94921875 14.6510416666667  Z M 37.43603515625 21.580078125  C 37.56201171875 21.466796875  37.625 21.3220486111111  37.625 21.1458333333333  L 37.625 19.9375  C 37.625 19.7612847222222  37.56201171875 19.6165364583333  37.43603515625 19.5032552083333  C 37.31005859375 19.3899739583333  37.1490885416667 19.3333333333333  36.953125 19  L 22.171875 19  C 21.9759114583333 19.3333333333333  21.81494140625 19.3899739583333  21.68896484375 19.5032552083333  C 21.56298828125 19.6165364583333  21.5 19.7612847222222  21.5 19.9375  L 21.5 21.1458333333333  C 21.5 21.3220486111111  21.56298828125 21.466796875  21.68896484375 21.580078125  C 21.81494140625 21.693359375  21.9759114583333 21.75  22.171875 21.75  L 36.953125 21.75  C 37.1490885416667 21.75  37.31005859375 21.693359375  37.43603515625 21.580078125  Z M 29.37353515625 16.7467447916667  C 29.49951171875 16.6334635416667  29.5625 16.4887152777778  29.5625 16.3125  L 29.5625 15.1041666666667  C 29.5625 14.9279513888889  29.49951171875 14.783203125  29.37353515625 14.669921875  C 29.24755859375 14.556640625  29.0865885416667 14.5  28.890625 14.5  L 22.171875 14.5  C 21.9759114583333 14.5  21.81494140625 14.556640625  21.68896484375 14.669921875  C 21.56298828125 14.783203125  21.5 14.9279513888889  21.5 15.1041666666667  L 21.5 16.3125  C 21.5 16.4887152777778  21.56298828125 16.6334635416667  21.68896484375 16.7467447916667  C 21.81494140625 16.8600260416667  21.9759114583333 16.9166666666667  22.171875 16.9166666666667  L 28.890625 16.9166666666667  C 29.0865885416667 16.9166666666667  29.24755859375 16.8600260416667  29.37353515625 16.7467447916667  Z M 37.43603515625 16.7467447916667  C 37.56201171875 16.6334635416667  37.625 16.4887152777778  37.625 16.3125  L 37.625 15.1041666666667  C 37.625 14.9279513888889  37.56201171875 14.783203125  37.43603515625 14.669921875  C 37.31005859375 14.556640625  37.1490885416667 14.5  36.953125 14.5  L 32.921875 14.5  C 32.7259114583333 14.5  32.56494140625 14.556640625  32.43896484375 14.669921875  C 32.31298828125 14.783203125  32.25 14.9279513888889  32.25 15.1041666666667  L 32.25 16.3125  C 32.25 16.4887152777778  32.31298828125 16.6334635416667  32.43896484375 16.7467447916667  C 32.56494140625 16.8600260416667  32.7259114583333 16.9166666666667  32.921875 16.9166666666667  L 36.953125 16.9166666666667  C 37.1490885416667 16.9166666666667  37.31005859375 16.8600260416667  37.43603515625 16.7467447916667  Z M 37.43603515625 11.9134114583333  C 37.56201171875 11.8001302083333  37.625 11.6553819444445  37.625 11.4791666666667  L 37.625 10.2708333333333  C 37.625 10.0946180555555  37.56201171875 9.94986979166667  37.43603515625 9.83658854166667  C 37.31005859375 9.72330729166667  37.1490885416667 9.66666666666667  36.953125 10  L 22.171875 10  C 21.9759114583333 9.66666666666667  21.81494140625 9.72330729166667  21.68896484375 9.83658854166667  C 21.56298828125 9.94986979166667  21.5 10.0946180555555  21.5 10.2708333333333  L 21.5 11.4791666666667  C 21.5 11.6553819444445  21.56298828125 11.8001302083333  21.68896484375 11.9134114583333  C 21.81494140625 12.0266927083333  21.9759114583333 12.0833333333333  22.171875 12  L 36.953125 12  C 37.1490885416667 12.0833333333333  37.31005859375 12.0266927083333  37.43603515625 11.9134114583333  Z M 2.6875 3.02083333333334  L 2.6875 5  L 40.3125 5  L 40.3125 3.02083333333334  C 40.3125 2.84461805555554  40.24951171875 2.69986979166666  40.12353515625 2.58658854166666  C 39.99755859375 2.47330729166666  39.8365885416667 2.41666666666666  39.640625 2.41666666666666  L 3.359375 2.41666666666666  C 3.16341145833331 2.41666666666666  3.00244140625 2.47330729166666  2.87646484375 2.58658854166666  C 2.75048828125 2.69986979166666  2.6875 2.84461805555554  2.6875 3.02083333333334  Z M 42.01318359375 0.887369791666657  C 42.6710611979167 1.47894965277777  43 2.19010416666666  43 3.02083333333334  L 43 25.9791666666667  C 43 26.8098958333333  42.6710611979167 27.5210503472222  42.01318359375 28.1126302083333  C 41.3553059895833 28.7042100694445  40.564453125 29  39.640625 29  L 3.359375 29  C 2.435546875 29  1.64469401041669 28.7042100694445  0.98681640625 28.1126302083333  C 0.328938802083314 27.5210503472222  0 26.8098958333333  0 25.9791666666667  L 0 3.02083333333334  C 0 2.19010416666666  0.328938802083314 1.47894965277777  0.98681640625 0.887369791666657  C 1.64469401041669 0.295789930555543  2.435546875 0  3.359375 0  L 39.640625 0  C 40.564453125 0  41.3553059895833 0.295789930555543  42.01318359375 0.887369791666657  Z " fill-rule="nonzero" fill="#3399cc" stroke="none" transform="matrix(1 0 0 1 443 67 )" />
  </g>
</svg>