<?xml version="1.0" encoding="utf-8"?>
<svg version="1.1" xmlns:xlink="http://www.w3.org/1999/xlink" width="47px" height="34px" xmlns="http://www.w3.org/2000/svg">
  <g transform="matrix(1 0 0 1 -357 -139 )">
    <path d="M 43.4054478784704 20.3323863636364  C 43.7008905185961 19.9782196969697  43.848611838659 19.6642992424242  43.848611838659 19.390625  C 43.848611838659 18.827178030303  43.4136546184739 18.5454545454545  42.5437401781037 18  L 15.7569408067051 18  C 15.1004016064257 18.5454545454545  14.3987253361271 18.7185132575758  13.6519119958093 19.0646306818182  C 12.9050986554915 19.4107481060606  12.3183167452419 19.8333333333333  11.8915662650602 20.3323863636364  L 4.65322158198012 29.0980113636364  C 4.35777894185441 29.484375  4.21005762179152 29.8063446969697  4.21005762179152 30.0639204545455  C 4.21005762179152 30.6273674242424  4.6450148419766 30.9090909090909  5.51492928234677 31  L 32.3017286537454 31  C 32.9582678540248 30.9090909090909  33.6640474943251 30.7320075757576  34.4190675746464 30.3778409090909  C 35.1740876549677 30.0236742424242  35.7567661952156 29.5970643939394  36.1671031953903 29.0980113636364  L 43.4054478784704 20.3323863636364  Z M 12.3101100052384 16.2876420454546  C 13.4918805657412 15.7322443181818  14.6408241662301 15.4545454545454  15.7569408067051 16  L 34.6652697747512 16  L 34.6652697747512 11.5909090909091  C 34.6652697747512 10.9469696969697  34.4354810546534 10.3996212121212  33.9759036144578 9.94886363636363  C 33.5163261742623 9.49810606060606  32.9582678540248 9.27272727272728  32.3017286537454 9.27272727272728  L 18.1204819277108 9.27272727272728  C 17.4639427274315 9.27272727272728  16.905884407194 9.0473484848485  16.4463069669984 8.59659090909091  C 15.9867295268029 8.14583333333334  15.7569408067051 7.59848484848484  15.7569408067051 6.95454545454547  L 15.7569408067051 5.40909090909091  C 15.7569408067051 4.7651515151515  15.5271520866073 4.21780303030303  15.0675746464117 3.76704545454547  C 14.6079972062162 3.31628787878788  14.0499388859787 3.09090909090909  13.3933996856993 3.09090909090909  L 5.51492928234677 3.09090909090909  C 4.85839008206739 3.09090909090909  4.30033176182991 3.31628787878788  3.84075432163439 3.76704545454547  C 3.38117688143882 4.21780303030303  3.151388161341 4.7651515151515  4 5.40909090909091  L 4 26.0071022727273  L 9.45416448402307 18.4005681818182  C 10.1763576043303 17.5473484848485  11.1283394447354 16.8430397727273  12.3101100052384 16.2876420454546  Z M 46.6306966998429 17.7485795454545  C 46.8768988999476 18.2637310606061  47 18.8110795454545  47 19.390625  C 47 20.3887310606061  46.6224899598394 21.3546401515152  45.8674698795181 22.2883522727273  L 38.6045049764274 31.0539772727273  C 37.8987253361271 31.907196969697  36.946743495722 32.6115056818182  35.7485594552122 33.1669034090909  C 34.5503754147023 33.7223011363636  33.4014318142134 34  32.3017286537454 34  L 5.51492928234677 34  C 4.00488912170425 34  2.70822420115246 33.46875  1.62493452069145 32.40625  C 0.541644840230504 31.34375  0 30.0719696969697  0 28.5909090909091  L 0 5.40909090909091  C 0 3.92803030303031  0.541644840230504 2.65625  1.62493452069145 1.59375  C 2.70822420115246 0.53125  4.00488912170425 0  5.51492928234677 0  L 13.3933996856993 0  C 14.9034398463419 0  16.2001047668937 0.53125  17.2833944473547 1.59375  C 18.3666841278156 2.65625  18.9083289680461 3.92803030303031  18.9083289680461 5.40909090909091  L 18.9083289680461 6.18181818181819  L 32.3017286537454 6.18181818181819  C 33.811768814388 6.18181818181819  35.1084337349398 6.71306818181819  36.1917234154008 7.77556818181819  C 37.2750130958617 8.83806818181819  37.8166579360922 10.1098484848485  37.8166579360922 11.5909090909091  L 37.8166579360922 15.4545454545454  L 42.5437401781037 15.4545454545454  C 43.4300680984809 15.4545454545454  44.2425353588266 15.6517518939394  44.9811419591409 16.0461647727273  C 45.7197485594552 16.4405776515152  46.2696001396892 17.0080492424242  46.6306966998429 17.7485795454545  Z " fill-rule="nonzero" fill="#3399cc" stroke="none" transform="matrix(1 0 0 1 357 139 )" />
  </g>
</svg>