<?xml version="1.0" encoding="utf-8"?>
<svg version="1.1" xmlns:xlink="http://www.w3.org/1999/xlink" width="47px" height="34px" xmlns="http://www.w3.org/2000/svg">
  <g transform="matrix(1 0 0 1 -440 -139 )">
    <path d="M 12.5333333333333 12.1428571428572  C 12.5333333333333 13.9010416666667  13.1942708333333 15.5200892857143  14.5161458333333 17  C 11.8723958333333 17.063244047619  9.7100694444444 17.8727678571429  8.0291666666667 19.4285714285714  L 4.74895833333335 19.4285714285714  C 3.41076388888894 19.4285714285714  2.28472222222217 19.1724330357143  1.37083333333328 18.66015625  C 0.456944444444389 18.1478794642857  0 17.3984375  0 16.4118303571428  C 0 11.9468005952381  1.01180555555561 9.71428571428572  3.03541666666672 9.71428571428572  C 3.13333333333333 9.71428571428572  3.48828125 9.84709821428572  4.10026041666669 10.1127232142857  C 4.71223958333331 10.3783482142857  5.5078125 10.6471354166667  6.48697916666669 10.9190848214286  C 7.46614583333331 11.1910342261905  8.43715277777778 11.3270089285714  9.39999999999998 11.3270089285714  C 10.4934027777778 11.3270089285714  11.5786458333333 11.1815476190476  12.6557291666667 10.890625  C 12.5741319444444 11.358630952381  12.5333333333333 11.7760416666667  12.5333333333333 12.1428571428572  Z M 40.64765625 27.1222098214286  C 40.7047743055556 27.760974702381  40.7333333333333 28.4155505952381  40.7333333333333 29.0859375  C 40.7333333333333 30.6037946428571  40.1376736111111 31.8022693452381  38.9463541666667 32.6813616071429  C 37.7550347222223 33.5604538690476  36.1720486111111 34  34.1973958333333 34  L 12.8026041666667 34  C 10.8279513888889 34  9.24496527777779 33.5604538690476  8.05364583333335 32.6813616071429  C 6.86232638888885 31.8022693452381  6.26666666666665 30.6037946428571  6.26666666666665 29.0859375  C 6.26666666666665 28.4155505952381  6.29522569444441 27.760974702381  6.35234375000005 27.1222098214286  C 6.40946180555557 26.4834449404762  6.52369791666672 25.7940848214286  6.69505208333328 25.0541294642857  C 6.86640624999995 24.3141741071429  7.08263888888894 23.6279761904762  7.34375 22.9955357142857  C 7.60486111111106 22.3630952380952  7.95572916666669 21.7464657738095  8.3963541666667 21.1456473214286  C 8.83697916666665 20.5448288690476  9.3428819444444 20.0325520833333  9.9140625 19.6088169642857  C 10.4852430555556 19.1850818452381  11.1828993055556 18.8467261904762  12.00703125 18.59375  C 12.8311631944444 18.3407738095238  13.7409722222222 18.2142857142857  14.7364583333333 18.2142857142857  C 14.8996527777778 18.2142857142857  15.2505208333333 18.3502604166667  15.7890625 18.6222098214286  C 16.3276041666667 18.8941592261905  16.9232638888889 19.1977306547619  17.5760416666667 19.5329241071429  C 18.2288194444444 19.8681175595238  19.1019097222222 20.1716889880952  20.1953125 20.4436383928571  C 21.2887152777778 20.715587797619  22.3902777777778 20.8515625  23.5 20.8515625  C 24.6097222222222 20.8515625  25.7112847222222 20.715587797619  26.8046875 20.4436383928571  C 27.8980902777778 20.1716889880952  28.7711805555556 19.8681175595238  29.4239583333333 19.5329241071429  C 30.0767361111111 19.1977306547619  30.6723958333333 18.8941592261905  31.2109375 18.6222098214286  C 31.7494791666667 18.3502604166667  32.1003472222222 18.2142857142857  32.2635416666667 18.2142857142857  C 33.2590277777778 18.2142857142857  34.1688368055556 18.3407738095238  34.99296875 18.59375  C 35.8171006944444 18.8467261904762  36.5147569444444 19.1850818452381  37.0859375 19.6088169642857  C 37.6571180555556 20.0325520833333  38.1630208333333 20.5448288690476  38.6036458333333 21.1456473214286  C 39.0442708333333 21.7464657738095  39.3951388888889 22.3630952380952  39.65625 22.9955357142857  C 39.9173611111111 23.6279761904762  40.13359375 24.3141741071429  40.3049479166667 25.0541294642857  C 40.4763020833333 25.7940848214286  40.5905381944444 26.4834449404762  40.64765625 27.1222098214286  Z M 13.8307291666667 1.42299107142856  C 15.0546875 2.37165178571428  15.6666666666667 3.51636904761904  15.6666666666667 4.85714285714283  C 15.6666666666667 6.19791666666666  15.0546875 7.34263392857144  13.8307291666667 8.29129464285717  C 12.6067708333333 9.23995535714283  11.1298611111112 9.71428571428572  9.39999999999998 9.71428571428572  C 7.67013888888891 9.71428571428572  6.1932291666667 9.23995535714283  4.96927083333333 8.29129464285717  C 3.74531249999995 7.34263392857144  3.13333333333333 6.19791666666666  3.13333333333333 4.85714285714283  C 3.13333333333333 3.51636904761904  3.74531249999995 2.37165178571428  4.96927083333333 1.42299107142856  C 6.1932291666667 0.474330357142833  7.67013888888891 0  9.39999999999998 0  C 11.1298611111112 0  12.6067708333333 0.474330357142833  13.8307291666667 1.42299107142856  Z M 30.14609375 6.99162946428572  C 31.98203125 8.41462053571428  32.9 10.1316964285714  32.9 12.1428571428572  C 32.9 14.1540178571428  31.98203125 15.87109375  30.14609375 17.2940848214286  C 28.31015625 18.7170758928571  26.0947916666666 19.4285714285714  23.5 19.4285714285714  C 20.9052083333333 19.4285714285714  18.68984375 18.7170758928571  16.85390625 17.2940848214286  C 15.01796875 15.87109375  14.1 14.1540178571428  14.1 12.1428571428572  C 14.1 10.1316964285714  15.01796875 8.41462053571428  16.85390625 6.99162946428572  C 18.68984375 5.56863839285717  20.9052083333333 4.85714285714283  23.5 4.85714285714283  C 26.0947916666666 4.85714285714283  28.31015625 5.56863839285717  30.14609375 6.99162946428572  Z M 43.9645833333334 9.71428571428572  C 45.9881944444444 9.71428571428572  47 11.9468005952381  47 16.4118303571428  C 47 17.3984375  46.5430555555556 18.1478794642857  45.6291666666666 18.66015625  C 44.7152777777778 19.1724330357143  43.5892361111112 19.4285714285714  42.2510416666667 19.4285714285714  L 38.9708333333333 19.4285714285714  C 37.2899305555556 17.8727678571429  35.1276041666667 17.063244047619  32.4838541666667 17  C 33.8057291666667 15.5200892857143  34.4666666666667 13.9010416666667  34.4666666666667 12.1428571428572  C 34.4666666666667 11.7760416666667  34.4258680555556 11.358630952381  34.3442708333333 10.890625  C 35.4213541666667 11.1815476190476  36.5065972222222 11.3270089285714  37.6 11.3270089285714  C 38.5628472222222 11.3270089285714  39.5338541666667 11.1910342261905  40.5130208333333 10.9190848214286  C 41.4921875 10.6471354166667  42.2877604166666 10.3783482142857  42.8997395833334 10.1127232142857  C 43.51171875 9.84709821428572  43.8666666666666 9.71428571428572  43.9645833333334 9.71428571428572  Z M 42.0307291666666 1.42299107142856  C 43.2546875 2.37165178571428  43.8666666666666 3.51636904761904  43.8666666666666 4.85714285714283  C 43.8666666666666 6.19791666666666  43.2546875 7.34263392857144  42.0307291666666 8.29129464285717  C 40.8067708333333 9.23995535714283  39.3298611111111 9.71428571428572  37.6 9.71428571428572  C 35.8701388888889 9.71428571428572  34.3932291666667 9.23995535714283  33.1692708333333 8.29129464285717  C 31.9453125 7.34263392857144  31.3333333333333 6.19791666666666  31.3333333333333 4.85714285714283  C 31.3333333333333 3.51636904761904  31.9453125 2.37165178571428  33.1692708333333 1.42299107142856  C 34.3932291666667 0.474330357142833  35.8701388888889 0  37.6 0  C 39.3298611111111 0  40.8067708333333 0.474330357142833  42.0307291666666 1.42299107142856  Z " fill-rule="nonzero" fill="#3399cc" stroke="none" transform="matrix(1 0 0 1 440 139 )" />
  </g>
</svg>