<?xml version="1.0" encoding="utf-8"?>
<svg version="1.1" xmlns:xlink="http://www.w3.org/1999/xlink" width="22px" height="29px" xmlns="http://www.w3.org/2000/svg">
  <g transform="matrix(1 0 0 1 -761 -115 )">
    <path d="M 1.69230769230762 22.2678571428572  L 1.69230769230762 26.9285714285714  L 5.5 26.9285714285714  L 5.5 22.2678571428572  L 1.69230769230762 22.2678571428572  Z M 6.34615384615381 22.2678571428572  L 6.34615384615381 26.9285714285714  L 10.5769230769231 26.9285714285714  L 10.5769230769231 22.2678571428572  L 6.34615384615381 22.2678571428572  Z M 1.69230769230762 16.0535714285714  L 1.69230769230762 21.2321428571428  L 5.5 21.2321428571428  L 5.5 16.0535714285714  L 1.69230769230762 16.0535714285714  Z M 6.34615384615381 16.0535714285714  L 6.34615384615381 21.2321428571428  L 10.5769230769231 21.2321428571428  L 10.5769230769231 16.0535714285714  L 6.34615384615381 16.0535714285714  Z M 1.69230769230762 10.3571428571428  L 1.69230769230762 15.0178571428572  L 5.5 15.0178571428572  L 5.5 10.3571428571428  L 1.69230769230762 10.3571428571428  Z M 11.4230769230769 22.2678571428572  L 11.4230769230769 26.9285714285714  L 15.6538461538462 26.9285714285714  L 15.6538461538462 22.2678571428572  L 11.4230769230769 22.2678571428572  Z M 6.34615384615381 10.3571428571428  L 6.34615384615381 15.0178571428572  L 10.5769230769231 15.0178571428572  L 10.5769230769231 10.3571428571428  L 6.34615384615381 10.3571428571428  Z M 16.5 22.2678571428572  L 16.5 26.9285714285714  L 20.3076923076924 26.9285714285714  L 20.3076923076924 22.2678571428572  L 16.5 22.2678571428572  Z M 11.4230769230769 16.0535714285714  L 11.4230769230769 21.2321428571428  L 15.6538461538462 21.2321428571428  L 15.6538461538462 16.0535714285714  L 11.4230769230769 16.0535714285714  Z M 6.64362980769238 7.61411830357142  C 6.72736378205127 7.51162574404762  6.76923076923083 7.39025297619048  6.76923076923083 7.25  L 6.76923076923083 2.58928571428571  C 6.76923076923083 2.44903273809526  6.72736378205127 2.3276599702381  6.64362980769238 2.22516741071429  C 6.55989583333337 2.12267485119048  6.46073717948718 2.07142857142858  6.34615384615381 2.07142857142858  L 5.5 2.07142857142858  C 5.38541666666663 2.07142857142858  5.28625801282055 2.12267485119048  5.20252403846143 2.22516741071429  C 5.11879006410254 2.3276599702381  5.07692307692309 2.44903273809526  5.07692307692309 2.58928571428571  L 5.07692307692309 7.25  C 5.07692307692309 7.39025297619048  5.11879006410254 7.51162574404762  5.20252403846143 7.61411830357142  C 5.28625801282055 7.71661086309525  5.38541666666663 7.76785714285715  5.5 7.76785714285715  L 6.34615384615381 7.76785714285715  C 6.46073717948718 7.76785714285715  6.55989583333337 7.71661086309525  6.64362980769238 7.61411830357142  Z M 16.5 16.0535714285714  L 16.5 21.2321428571428  L 20.3076923076924 21.2321428571428  L 20.3076923076924 16.0535714285714  L 16.5 16.0535714285714  Z M 11.4230769230769 10.3571428571428  L 11.4230769230769 15.0178571428572  L 15.6538461538462 15.0178571428572  L 15.6538461538462 10.3571428571428  L 11.4230769230769 10.3571428571428  Z M 16.5 10.3571428571428  L 16.5 15.0178571428572  L 20.3076923076924 15.0178571428572  L 20.3076923076924 10.3571428571428  L 16.5 10.3571428571428  Z M 16.7974759615386 7.61411830357142  C 16.8812099358975 7.51162574404762  16.9230769230769 7.39025297619048  16.9230769230769 7.25  L 16.9230769230769 2.58928571428571  C 16.9230769230769 2.44903273809526  16.8812099358975 2.3276599702381  16.7974759615386 2.22516741071429  C 16.7137419871794 2.12267485119048  16.6145833333334 2.07142857142858  16.5 2.07142857142858  L 15.6538461538462 2.07142857142858  C 15.5392628205128 2.07142857142858  15.4401041666666 2.12267485119048  15.3563701923076 2.22516741071429  C 15.2726362179487 2.3276599702381  15.2307692307693 2.44903273809526  15.2307692307693 2.58928571428571  L 15.2307692307693 7.25  C 15.2307692307693 7.39025297619048  15.2726362179487 7.51162574404762  15.3563701923076 7.61411830357142  C 15.4401041666666 7.71661086309525  15.5392628205128 7.76785714285715  15.6538461538462 7.76785714285715  L 16.5 7.76785714285715  C 16.6145833333334 7.76785714285715  16.7137419871794 7.71661086309525  16.7974759615386 7.61411830357142  Z M 21.4975961538462 4.7578125  C 21.8325320512821 5.16778273809526  22 5.65327380952381  22 6.21428571428571  L 22 26.9285714285714  C 22 27.4895833333333  21.8325320512821 27.9750744047619  21.4975961538462 28.3850446428572  C 21.1626602564103 28.7950148809524  20.7660256410256 29  20.3076923076924 29  L 1.69230769230762 29  C 1.23397435897436 29  0.837339743589723 28.7950148809524  0.502403846153811 28.3850446428572  C 0.167467948717899 27.9750744047619  0 27.4895833333333  0 26.9285714285714  L 0 6.21428571428571  C 0 5.65327380952381  0.167467948717899 5.16778273809526  0.502403846153811 4.7578125  C 0.837339743589723 4.34784226190475  1.23397435897436 4.14285714285715  1.69230769230762 4.14285714285715  L 3.38461538461547 4.14285714285715  L 3.38461538461547 2.58928571428571  C 3.38461538461547 1.87723214285715  3.59174679487182 1.26767113095238  4.00600961538453 0.760602678571416  C 4.42027243589746 0.253534226190482  4.91826923076917 0  5.5 0  L 6.34615384615381 0  C 6.92788461538453 0  7.42588141025646 0.253534226190482  7.84014423076917 0.760602678571416  C 8.2544070512821 1.26767113095238  8.46153846153857 1.87723214285715  8.46153846153857 2.58928571428571  L 8.46153846153857 4.14285714285715  L 13.5384615384614 4.14285714285715  L 13.5384615384614 2.58928571428571  C 13.5384615384614 1.87723214285715  13.7455929487179 1.26767113095238  14.1598557692307 0.760602678571416  C 14.5741185897435 0.253534226190482  15.0721153846155 0  15.6538461538462 0  L 16.5 0  C 17.0817307692307 0  17.5797275641025 0.253534226190482  17.9939903846155 0.760602678571416  C 18.4082532051282 1.26767113095238  18.6153846153845 1.87723214285715  18.6153846153845 2.58928571428571  L 18.6153846153845 4.14285714285715  L 20.3076923076924 4.14285714285715  C 20.7660256410256 4.14285714285715  21.1626602564103 4.34784226190475  21.4975961538462 4.7578125  Z " fill-rule="nonzero" fill="#000000" stroke="none" transform="matrix(1 0 0 1 761 115 )" />
  </g>
</svg>