<?xml version="1.0" encoding="utf-8"?>
<svg version="1.1" xmlns:xlink="http://www.w3.org/1999/xlink" width="35px" height="28px" xmlns="http://www.w3.org/2000/svg">
  <g transform="matrix(1 0 0 1 -987 -25 )">
    <path d="M 24.4531250000001 24.6328125  C 26.6015624999999 23.7213541666667  28.3658854166666 22.484375  29.7460937499999 20.921875  C 29.4596354166666 19.3072916666667  28.8899739583333 17.9661458333333  28.0371093749999 16.8984375  C 27.1842447916669 15.8307291666667  25.9830729166665 15.2135416666667  24.4335937499999 15.046875  C 23.5611979166669 15.8177083333333  22.5227864583334 16.4192708333333  21.3183593750001 16.8515625  C 20.1139322916667 17.2838541666667  18.8411458333333 17.5  17.5 17.5  C 16.1588541666667 17.5  14.8860677083334 17.2838541666667  13.6816406249999 16.8515625  C 12.4772135416666 16.4192708333333  11.4388020833331 15.8177083333333  10.5664062500001 15.046875  C 9.01692708333348 15.2135416666667  7.81575520833314 15.8307291666667  6.96289062500011 16.8984375  C 6.11002604166674 17.9661458333333  5.54036458333337 19.3072916666667  5.25390625000011 20.921875  C 6.63411458333337 22.484375  8.39843750000011 23.7213541666667  10.5468749999999 24.6328125  C 12.6953125000001 25.5442708333333  15.0130208333333 26  17.5 26  C 19.9869791666667 26  22.3046874999999 25.5442708333333  24.4531250000001 24.6328125  Z M 22.8027343750001 14.2421875  C 24.267578125 13.0703125  25.0000000000001 11.65625  25.0000000000001 10  C 25.0000000000001 8.34374999999999  24.267578125 6.92968749999999  22.8027343750001 5.75781250000001  C 21.3378906249999 4.5859375  19.5703124999999 4  17.5 4  C 15.4296875000001 4  13.6621093750001 4.5859375  12.1972656249999 5.75781250000001  C 10.732421875 6.92968749999999  9.99999999999989 8.34374999999999  9.99999999999989 10  C 9.99999999999989 11.65625  10.732421875 13.0703125  12.1972656249999 14.2421875  C 12.7342748638782 14.6717948911025  13.3119698828466 15.0226556110627  13.930350681905 15.2947696598805  C 14.9987774515829 15.7649232199602  16.1886605576145 16  17.5 16  C 19.5703124999999 16  21.3378906249999 15.4140625  22.8027343750001 14.2421875  Z M 33.6132812500002 8.56249999999999  C 34.5377604166667 10.2916666666667  35 12.1041666666667  35 14  C 35 15.8958333333333  34.5377604166667 17.7057291666667  33.6132812500002 19.4296875  C 32.6888020833335 21.1536458333333  31.4485677083334 22.6432291666667  29.8925781249999 23.8984375  C 28.3365885416666 25.1536458333333  26.4778645833331 26.1510416666667  24.3164062500001 26.890625  C 22.1549479166665 27.6302083333333  19.8828125000001 28  17.5 28  C 15.1302083333331 28  12.8645833333335 27.6302083333333  10.7031250000001 26.890625  C 8.54166666666663 26.1510416666667  6.67968750000011 25.15625  5.11718750000011 23.90625  C 3.5546875 22.65625  2.31119791666652 21.1666666666667  1.38671874999989 19.4375  C 0.462239583333258 17.7083333333333  0 15.8958333333333  0 14  C 0 12.1041666666667  0.462239583333258 10.2916666666667  1.38671874999989 8.56249999999999  C 2.31119791666652 6.83333333333334  3.5546875 5.34374999999999  5.11718750000011 4.09375  C 6.67968750000011 2.84375  8.54166666666663 1.84895833333333  10.7031250000001 1.109375  C 12.8645833333335 0.369791666666668  15.1302083333331 0  17.5 0  C 19.8697916666669 0  22.1354166666665 0.369791666666668  24.2968749999999 1.109375  C 26.4583333333334 1.84895833333333  28.3203124999999 2.84375  29.8828124999999 4.09375  C 31.4453125 5.34374999999999  32.6888020833335 6.83333333333334  33.6132812500002 8.56249999999999  Z " fill-rule="nonzero" fill="#ffffff" stroke="none" transform="matrix(1 0 0 1 987 25 )" />
  </g>
</svg>