<?xml version="1.0" encoding="utf-8"?>
<svg version="1.1" xmlns:xlink="http://www.w3.org/1999/xlink" width="43px" height="32px" xmlns="http://www.w3.org/2000/svg">
  <g transform="matrix(1 0 0 1 -274 -70 )">
    <path d="M 40.8061224489796 6.39583333333333  C 41.4599839935974 6.60416666666667  41.9675870348139 6.90277777777777  42.328931572629 7.29166666666667  C 43.0172068827531 8.08333333333333  43.1720688275311 8.97916666666667  42.7935174069628 9.97916666666667  L 35.6956782713085 28.8541666666667  C 35.3687474989996 29.7430555555556  34.7105842336935 30.4895833333333  33.7211884753901 31.09375  C 32.7317927170869 31.6979166666667  31.6778711484594 32  30.5594237695078 32  L 6.73649459783917 32  C 5.41156462585036 32  4.13395358143259 31.6284722222222  2.90366146458581 30.8854166666667  C 1.67336934773908 30.1423611111111  0.81732693077231 29.2291666666667  0.335534213685492 28.1458333333333  C -0.0774309723890383 27.2152777777778  -0.0946378551420253 26.3333333333333  0.28391356542619 25.5  C 0.28391356542619 25.4444444444444  0.309723889555812 25.2569444444444  0.361344537815114 24.9375  C 0.412965186074416 24.6180555555556  0.447378951580617 24.3611111111111  0.464585834333718 24.1666666666667  C 0.481792717086876 24.0555555555556  0.455982392957196 23.90625  0.387154861944794 23.71875  C 0.318327330932334 23.53125  0.292517006802711 23.3958333333333  0.309723889555812 23.3125  C 0.34413765506207 23.1597222222222  0.412965186074416 23.0138888888889  0.51620648259302 22.875  C 0.619447779111681 22.7361111111111  0.761404561824691 22.5729166666667  0.942076830732333 22.3854166666667  C 1.12274909963986 22.1979166666667  1.26470588235293 22.0347222222222  1.36794717887159 21.8958333333333  C 1.7637054821929 21.3680555555556  2.15086034413764 20.7326388888889  2.52941176470586 19.9895833333333  C 2.90796318527407 19.2465277777778  3.16606642657064 18.6111111111111  3.30372148859544 18.0833333333333  C 3.35534213685474 17.9444444444444  3.35964385754301 17.7361111111111  3.31662665066028 17.4583333333333  C 3.2736094437775 17.1805555555556  3.26930772308924 16.9861111111111  3.30372148859544 16.875  C 3.35534213685474 16.7222222222222  3.50160064025607 16.5277777777778  3.74249699879954 16.2916666666667  C 3.98339335734295 16.0555555555556  4.12965186074433 15.8958333333333  4.18127250900363 15.8125  C 4.54261704681869 15.3125  4.90396158463386 14.6736111111111  5.26530612244903 13.8958333333333  C 5.62665066026409 13.1180555555556  5.84173669467788 12.4930555555556  5.91056422569028 12.0208333333333  C 5.92777110844338 11.8958333333333  5.90626250500202 11.6736111111111  5.84603841536614 11.3541666666667  C 5.78581432573037 11.0347222222222  5.79011604641858 10.8402777777778  5.85894357743098 10.7708333333333  C 5.92777110844338 10.5902777777778  6.11704681872754 10.3784722222222  6.42677070828336 10.1354166666667  C 6.73649459783917 9.89236111111111  6.92577030812322 9.73611111111111  6.99459783913568 9.66666666666667  C 7.32152861144459 9.30555555555556  7.68717486994802 8.71875  8.09153661464586 7.90625  C 8.4958983593437 7.09375  8.7324929971989 6.42361111111111  8.80132052821131 5.89583333333333  C 8.81852741096441 5.78472222222223  8.79271708683478 5.60763888888887  8.72388955582232 5.36458333333333  C 8.65506202480992 5.12152777777777  8.63785514205688 4.9375  8.67226890756297 4.8125  C 8.70668267306922 4.70138888888887  8.78411364545821 4.57638888888887  8.90456182472991 4.4375  C 9.02501000400162 4.29861111111111  9.17987194877952 4.13888888888887  9.36914765906369 3.95833333333333  C 9.55842336934774 3.77777777777777  9.70468187274912 3.63194444444444  9.80792316926767 3.52083333333333  C 9.94557823129253 3.35416666666667  10.0875350140056 3.14236111111111  10.233793517407 2.88541666666667  C 10.3800520208083 2.62847222222223  10.5091036414566 2.38541666666667  10.6209483793517 2.15625  C 10.7327931172469 1.92708333333333  10.8704481792716 1.67708333333333  11.0339135654262 1.40625  C 11.1973789515806 1.13541666666667  11.3651460584234 0.913194444444443  11.5372148859544 0.739583333333329  C 11.7092837134854 0.565972222222229  11.937274909964 0.402777777777771  12.2211884753901 0.25  C 12.5051020408163 0.0972222222222285  12.8148259303721 0.0173611111111143  13.1503601440577 0.0104166666666714  C 13.4858943577431 0.00347222222222854  13.8945578231292 0.0416666666666714  14.3763505402161 0.125  L 14.3505402160864 0.1875  C 15.0044017607043 0.0625  15.4431772709083 0  15.6668667466986 0  L 35.3085234093637 0  C 36.5818327330932 0  37.56262505002 0.388888888888872  38.250900360144 1.16666666666667  C 38.9391756702681 1.94444444444444  39.094037615046 2.84722222222223  38.7154861944778 3.875  L 31.6434573829532 22.75  C 31.0240096038415 24.4027777777778  30.4088635454182 25.46875  29.7980192076831 25.9479166666667  C 29.187174869948 26.4270833333333  28.0816326530613 26.6666666666667  26.4813925570228 26.6666666666667  L 4.05222088835535 26.6666666666667  C 3.58763505402163 26.6666666666667  3.26070428171266 26.7708333333333  3.07142857142856 26.9791666666667  C 2.88215286114445 27.2013888888889  2.87354941976793 27.5  3.04561824729893 27.875  C 3.45858343337335 28.8472222222222  4.6974789915966 29.3333333333333  6.76230492196879 29  L 30.5852340936375 29  C 31.0842336934774 29.3333333333333  31.5660264105642 29.2256944444444  32.030612244898 29.0104166666667  C 32.4951980792317 28.7951388888889  32.796318527411 28.5069444444444  32.9339735894358 28.1458333333333  L 40.6770708283314 7.58333333333333  C 40.7975190076031 7.27777777777777  40.8405362144857 6.88194444444444  40.8061224489796 6.39583333333333  Z M 15.4087635054022 6  L 14.8667466986795 7.33333333333333  C 14.797919167667 7.51388888888887  14.8151260504202 7.67013888888887  14.9183673469387 7.80208333333333  C 15.0216086434574 7.93402777777777  15.1936774709884 8  15.4345738295318 8  L 31.1272509003601 8  C 31.3509403761504 8  31.5703281312525 7.93402777777777  31.7854141656663 7.80208333333333  C 32.0005002000801 7.67013888888887  32.1424569827931 7.51388888888887  32.2112845138055 7.33333333333333  L 32.7533013205282 6  C 32.8221288515406 5.81944444444444  32.8049219687875 5.66319444444444  32.7016806722689 5.53125  C 32.5984393757503 5.39930555555556  32.4263705482193 5.33333333333333  32.1854741896759 5.33333333333333  L 16.4927971188476 5.33333333333333  C 16.2691076430572 5.33333333333333  16.0497198879552 5.39930555555556  15.8346338535414 5.53125  C 15.6195478191277 5.66319444444444  15.4775910364146 5.81944444444444  15.4087635054022 6  Z M 13.266506602641 11.3333333333333  L 12.7244897959183 12.6666666666667  C 12.655662264906 12.8472222222222  12.6728691476591 13.0034722222222  12.7761104441777 13.1354166666667  C 12.8793517406963 13.2673611111111  13.0514205682273 13.3333333333333  13.2923169267707 13.3333333333333  L 28.9849939975991 13.3333333333333  C 29.2086834733893 13.3333333333333  29.4280712284914 13.2673611111111  29.6431572629052 13.1354166666667  C 29.8582432973189 13.0034722222222  30.000200080032 12.8472222222222  30.0690276110444 12.6666666666667  L 30.6110444177671 11.3333333333333  C 30.6798719487795 11.1527777777778  30.6626650660264 10.9965277777778  30.5594237695078 10.8645833333333  C 30.4561824729892 10.7326388888889  30.2841136454582 10.6666666666667  30.0432172869147 11  L 14.3505402160864 11  C 14.1268507402962 10.6666666666667  13.9074629851941 10.7326388888889  13.6923769507803 10.8645833333333  C 13.4772909163665 10.9965277777778  13.3353341336535 11.1527777777778  13.266506602641 11.3333333333333  Z " fill-rule="nonzero" fill="#3399cc" stroke="none" transform="matrix(1 0 0 1 274 70 )" />
  </g>
</svg>