<?xml version="1.0" encoding="utf-8"?>
<svg version="1.1" xmlns:xlink="http://www.w3.org/1999/xlink" width="47px" height="39px" xmlns="http://www.w3.org/2000/svg">
  <g transform="matrix(1 0 0 1 -274 -139 )">
    <path d="M 8.93489583333337 35.5546875  C 9.24496527777774 35.2578125  9.39999999999998 34.90625  9.39999999999998 34.5  L 9.39999999999998 31.5  C 9.39999999999998 31.09375  9.24496527777774 30.7421875  8.93489583333337 30.4453125  C 8.62482638888889 30.1484375  8.25763888888889 30  7.83333333333337 30  L 4.70000000000005 30  C 4.27569444444441 30  3.90850694444441 30.1484375  3.59843750000005 30.4453125  C 3.28836805555557 30.7421875  3.13333333333333 31.09375  3.13333333333333 31.5  L 3.13333333333333 34.5  C 3.13333333333333 34.90625  3.28836805555557 35.2578125  3.59843750000005 35.5546875  C 3.90850694444441 35.8515625  4.27569444444441 36  4.70000000000005 36  L 7.83333333333337 36  C 8.25763888888889 36  8.62482638888889 35.8515625  8.93489583333337 35.5546875  Z M 8.93489583333337 26.5546875  C 9.24496527777774 26.2578125  9.39999999999998 25.90625  9.39999999999998 25.5  L 9.39999999999998 22.5  C 9.39999999999998 22.09375  9.24496527777774 21.7421875  8.93489583333337 21.4453125  C 8.62482638888889 21.1484375  8.25763888888889 21  7.83333333333337 21  L 4.70000000000005 21  C 4.27569444444441 21  3.90850694444441 21.1484375  3.59843750000005 21.4453125  C 3.28836805555557 21.7421875  3.13333333333333 22.09375  3.13333333333333 22.5  L 3.13333333333333 25.5  C 3.13333333333333 25.90625  3.28836805555557 26.2578125  3.59843750000005 26.5546875  C 3.90850694444441 26.8515625  4.27569444444441 27  4.70000000000005 27  L 7.83333333333337 27  C 8.25763888888889 27  8.62482638888889 26.8515625  8.93489583333337 26.5546875  Z M 8.93489583333337 17.5546875  C 9.24496527777774 17.2578125  9.39999999999998 16.90625  9.39999999999998 16.5  L 9.39999999999998 13.5  C 9.39999999999998 13.09375  9.24496527777774 12.7421875  8.93489583333337 12.4453125  C 8.62482638888889 12.1484375  8.25763888888889 12  7.83333333333337 12  L 4.70000000000005 12  C 4.27569444444441 12  3.90850694444441 12.1484375  3.59843750000005 12.4453125  C 3.28836805555557 12.7421875  3.13333333333333 13.09375  3.13333333333333 13.5  L 3.13333333333333 16.5  C 3.13333333333333 16.90625  3.28836805555557 17.2578125  3.59843750000005 17.5546875  C 3.90850694444441 17.8515625  4.27569444444441 18  4.70000000000005 18  L 7.83333333333337 18  C 8.25763888888889 18  8.62482638888889 17.8515625  8.93489583333337 17.5546875  Z M 34.0015625 35.5546875  C 34.3116319444445 35.2578125  34.4666666666667 34.90625  34 34.5  L 34 22.5  C 34.4666666666667 22.09375  34.3116319444445 21.7421875  34.0015625 21.4453125  C 33.6914930555556 21.1484375  33.3243055555556 21  32.9 21  L 14.1 21  C 13.6756944444444 21  13.3085069444444 21.1484375  12.9984375 21.4453125  C 12.6883680555555 21.7421875  12.5333333333333 22.09375  13 22.5  L 13 34.5  C 12.5333333333333 34.90625  12.6883680555555 35.2578125  12.9984375 35.5546875  C 13.3085069444444 35.8515625  13.6756944444444 36  14.1 36  L 32.9 36  C 33.3243055555556 36  33.6914930555556 35.8515625  34.0015625 35.5546875  Z M 8.93489583333337 8.5546875  C 9.24496527777774 8.2578125  9.39999999999998 7.90625  9.39999999999998 7.5  L 9.39999999999998 4.5  C 9.39999999999998 4.09375  9.24496527777774 3.7421875  8.93489583333337 3.4453125  C 8.62482638888889 3.1484375  8.25763888888889 3  7.83333333333337 3  L 4.70000000000005 3  C 4.27569444444441 3  3.90850694444441 3.1484375  3.59843750000005 3.4453125  C 3.28836805555557 3.7421875  3.13333333333333 4.09375  3.13333333333333 4.5  L 3.13333333333333 7.5  C 3.13333333333333 7.90625  3.28836805555557 8.2578125  3.59843750000005 8.5546875  C 3.90850694444441 8.8515625  4.27569444444441 9  4.70000000000005 9  L 7.83333333333337 9  C 8.25763888888889 9  8.62482638888889 8.8515625  8.93489583333337 8.5546875  Z M 43.4015625 35.5546875  C 43.7116319444444 35.2578125  43.8666666666667 34.90625  43.8666666666667 34.5  L 43.8666666666667 31.5  C 43.8666666666667 31.09375  43.7116319444444 30.7421875  43.4015625 30.4453125  C 43.0914930555556 30.1484375  42.7243055555556 30  42.3 30  L 39.1666666666666 30  C 38.7423611111111 30  38.3751736111111 30.1484375  38.0651041666666 30.4453125  C 37.7550347222223 30.7421875  37.6 31.09375  37.6 31.5  L 37.6 34.5  C 37.6 34.90625  37.7550347222223 35.2578125  38.0651041666666 35.5546875  C 38.3751736111111 35.8515625  38.7423611111111 36  39.1666666666666 36  L 42.3 36  C 42.7243055555556 36  43.0914930555556 35.8515625  43.4015625 35.5546875  Z M 34.0015625 17.5546875  C 34.3116319444445 17.2578125  34.4666666666667 16.90625  34 16.5  L 34 4.5  C 34.4666666666667 4.09375  34.3116319444445 3.7421875  34.0015625 3.4453125  C 33.6914930555556 3.1484375  33.3243055555556 3  32.9 3  L 14.1 3  C 13.6756944444444 3  13.3085069444444 3.1484375  12.9984375 3.4453125  C 12.6883680555555 3.7421875  12.5333333333333 4.09375  13 4.5  L 13 16.5  C 12.5333333333333 16.90625  12.6883680555555 17.2578125  12.9984375 17.5546875  C 13.3085069444444 17.8515625  13.6756944444444 18  14.1 18  L 32.9 18  C 33.3243055555556 18  33.6914930555556 17.8515625  34.0015625 17.5546875  Z M 43.4015625 26.5546875  C 43.7116319444444 26.2578125  43.8666666666667 25.90625  43.8666666666667 25.5  L 43.8666666666667 22.5  C 43.8666666666667 22.09375  43.7116319444444 21.7421875  43.4015625 21.4453125  C 43.0914930555556 21.1484375  42.7243055555556 21  42.3 21  L 39.1666666666666 21  C 38.7423611111111 21  38.3751736111111 21.1484375  38.0651041666666 21.4453125  C 37.7550347222223 21.7421875  37.6 22.09375  37.6 22.5  L 37.6 25.5  C 37.6 25.90625  37.7550347222223 26.2578125  38.0651041666666 26.5546875  C 38.3751736111111 26.8515625  38.7423611111111 27  39.1666666666666 27  L 42.3 27  C 42.7243055555556 27  43.0914930555556 26.8515625  43.4015625 26.5546875  Z M 43.4015625 17.5546875  C 43.7116319444444 17.2578125  43.8666666666667 16.90625  43.8666666666667 16.5  L 43.8666666666667 13.5  C 43.8666666666667 13.09375  43.7116319444444 12.7421875  43.4015625 12.4453125  C 43.0914930555556 12.1484375  42.7243055555556 12  42.3 12  L 39.1666666666666 12  C 38.7423611111111 12  38.3751736111111 12.1484375  38.0651041666666 12.4453125  C 37.7550347222223 12.7421875  37.6 13.09375  37.6 13.5  L 37.6 16.5  C 37.6 16.90625  37.7550347222223 17.2578125  38.0651041666666 17.5546875  C 38.3751736111111 17.8515625  38.7423611111111 18  39.1666666666666 18  L 42.3 18  C 42.7243055555556 18  43.0914930555556 17.8515625  43.4015625 17.5546875  Z M 43.4015625 8.5546875  C 43.7116319444444 8.2578125  43.8666666666667 7.90625  43.8666666666667 7.5  L 43.8666666666667 4.5  C 43.8666666666667 4.09375  43.7116319444444 3.7421875  43.4015625 3.4453125  C 43.0914930555556 3.1484375  42.7243055555556 3  42.3 3  L 39.1666666666666 3  C 38.7423611111111 3  38.3751736111111 3.1484375  38.0651041666666 3.4453125  C 37.7550347222223 3.7421875  37.6 4.09375  37.6 4.5  L 37.6 7.5  C 37.6 7.90625  37.7550347222223 8.2578125  38.0651041666666 8.5546875  C 38.3751736111111 8.8515625  38.7423611111111 9  39.1666666666666 9  L 42.3 9  C 42.7243055555556 9  43.0914930555556 8.8515625  43.4015625 8.5546875  Z M 45.8494791666667 1.1015625  C 46.6164930555556 1.8359375  47 2.71875  47 3.75  L 47 35.25  C 47 36.28125  46.6164930555556 37.1640625  45.8494791666667 37.8984375  C 45.0824652777778 38.6328125  44.1604166666666 39  43.0833333333334 39  L 3.91666666666663 39  C 2.83958333333328 39  1.91753472222217 38.6328125  1.1505208333333 37.8984375  C 0.383506944444434 37.1640625  0 36.28125  0 35.25  L 0 3.75  C 0 2.71875  0.383506944444434 1.8359375  1.1505208333333 1.1015625  C 1.91753472222217 0.3671875  2.83958333333328 0  3.91666666666663 0  L 43.0833333333334 0  C 44.1604166666666 0  45.0824652777778 0.3671875  45.8494791666667 1.1015625  Z " fill-rule="nonzero" fill="#3399cc" stroke="none" transform="matrix(1 0 0 1 274 139 )" />
  </g>
</svg>